<svg width="76" height="76" viewBox="0 0 76 76" fill="none" xmlns="http://www.w3.org/2000/svg">
<rect x="0.603175" y="0.603175" width="74.7936" height="73.7803" stroke="#111111" stroke-width="1.20635"/>
<path d="M76 74.9888V0H38H0V74.9867H38H76V74.9888ZM72.7828 71.8145H53.2912C61.9682 68.0358 68.953 61.1441 72.7828 52.5828V71.8145ZM72.7828 3.17428V22.406C68.953 13.8447 61.9682 6.95299 53.2912 3.17428H72.7828V3.17428ZM3.21718 4.15489L58.6611 31.9204C59.1537 33.6977 59.4193 35.5659 59.4193 37.4954C59.4193 39.4778 59.1409 41.3946 58.6225 43.2142L27.8451 58.627H16.5828V52.9273L48.2149 37.4785L3.21718 15.5037V4.15489ZM34.6993 16.3617H38C46.1265 16.3617 53.212 20.8505 56.8404 27.4485L34.6993 16.3617ZM56.7419 47.7157C53.0856 54.2164 46.0558 58.627 38 58.627H34.952L56.7419 47.7157ZM16.5807 49.3853V25.5718L40.9623 37.4785L16.5807 49.3853ZM3.21718 19.0457L13.3657 24.0016V61.8013H38C51.5841 61.8013 62.6343 50.8984 62.6343 37.4954C62.6343 24.0924 51.5841 13.1874 38 13.1874H28.3613L8.36638 3.17428H38C57.1789 3.17428 72.7828 18.5702 72.7828 37.4933C72.7828 56.4165 57.1789 71.8124 38 71.8124H3.21718V19.0457Z" fill="black"/>
</svg>
